<?xml version="1.0" encoding="utf-8"?>
<svg version="1.1" xmlns:xlink="http://www.w3.org/1999/xlink" width="34px" height="30px" xmlns="http://www.w3.org/2000/svg">
  <g transform="matrix(1 0 0 1 -361 -480 )">
    <path d="M 31.5651041666667 18.2902644230769  C 31.6772569444445 18.1760817307693  31.7333333333333 18.0408653846154  31.7333333333333 17.8846153846154  L 31.7333333333333 2.88461538461536  C 31.7333333333333 2.72836538461536  31.6772569444445 2.59314903846155  31.5651041666667 2.47896634615392  C 31.4529513888889 2.36478365384608  31.3201388888889 2.30769230769226  31.1666666666667 2.30769230769226  L 2.83333333333326 2.30769230769226  C 2.67986111111111 2.30769230769226  2.54704861111111 2.36478365384608  2.43489583333326 2.47896634615392  C 2.32274305555552 2.59314903846155  2.26666666666665 2.72836538461536  2.26666666666665 2.88461538461536  L 2.26666666666665 17.8846153846154  C 2.26666666666665 18.0408653846154  2.32274305555552 18.1760817307693  2.43489583333326 18.2902644230769  C 2.54704861111111 18.4044471153846  2.67986111111111 18.4615384615385  2.83333333333326 18  L 31.1666666666667 18  C 31.3201388888889 18.4615384615385  31.4529513888889 18.4044471153846  31.5651041666667 18.2902644230769  Z M 33.1677083333334 0.847355769230717  C 33.7225694444444 1.41225961538464  34 2.09134615384608  34 2.88461538461536  L 34 22.5  C 34 23.2932692307693  33.7225694444444 23.9723557692307  33.1677083333334 24.5372596153846  C 32.6128472222223 25.1021634615385  31.9458333333333 25.3846153846154  31.1666666666667 25.3846153846154  L 21.5333333333334 25.3846153846154  C 21.5333333333334 25.8293269230769  21.6277777777777 26.2950721153846  21.8166666666666 26.7818509615385  C 22.0055555555556 27.2686298076923  22.1944444444445 27.6953125  22.3833333333333 28.0618990384615  C 22.5722222222222 28.4284855769231  22.6666666666667 28.6899038461539  22.6666666666667 28.8461538461539  C 22.6666666666667 29.1586538461539  22.5545138888889 29.4290865384615  22.3302083333334 29.6574519230769  C 22.1059027777777 29.8858173076923  21.8402777777777 30  21.5333333333334 30  L 12.4666666666666 30  C 12.1597222222223 30  11.8940972222223 29.8858173076923  11.6697916666666 29.6574519230769  C 11.4454861111111 29.4290865384615  11.3333333333333 29.1586538461539  11.3333333333333 28.8461538461539  C 11.3333333333333 28.6778846153846  11.4277777777778 28.4134615384615  11.6166666666667 28.0528846153846  C 11.8055555555555 27.6923076923077  11.9944444444444 27.2716346153846  12.1833333333334 26.7908653846154  C 12.3722222222223 26.3100961538461  12.4666666666666 25.8413461538461  12.4666666666666 25.3846153846154  L 2.83333333333326 25.3846153846154  C 2.05416666666667 25.3846153846154  1.38715277777771 25.1021634615385  0.832291666666606 24.5372596153846  C 0.277430555555611 23.9723557692307  0 23.2932692307693  0 22.5  L 0 2.88461538461536  C 0 2.09134615384608  0.277430555555611 1.41225961538464  0.832291666666606 0.847355769230717  C 1.38715277777771 0.282451923076906  2.05416666666667 0  2.83333333333326 0  L 31.1666666666667 0  C 31.9458333333333 0  32.6128472222223 0.282451923076906  33.1677083333334 0.847355769230717  Z " fill-rule="nonzero" fill="#666666" stroke="none" transform="matrix(1 0 0 1 361 480 )" />
  </g>
</svg>