<?xml version="1.0" encoding="utf-8"?>
<svg version="1.1" xmlns:xlink="http://www.w3.org/1999/xlink" width="34px" height="34px" xmlns="http://www.w3.org/2000/svg">
  <g transform="matrix(1 0 0 1 -1080 -478 )">
    <path d="M 32.7871969017685 0  C 33.0401682660206 0  33.2678424938475 0.0695684523809632  33.4702195852491 0.20870535714289  C 33.8876223362651 0.512276785714221  34.058378007135 0.917038690476147  33.9824865978595 1.42299107142867  L 29.1254364042201 30.5658482142858  C 29.0621935631571 30.9326636904761  28.8598164717554 31.2172619047619  28.5183051300151 31.4196428571429  C 28.3412251750386 31.5208333333333  28.1451723677433 31.5714285714287  27.9301467081291 31.5714285714287  C 27.7910124577904 31.5714285714287  27.6392296392393 31.539806547619  27.4747982524754 31.4765625  L 18.8800961520118 27.9665178571429  L 14.288665890837 33.5636160714287  C 14.0609916630101 33.8545386904761  13.7511017418013 34  13.3589961272106 34  C 13.1945647404468 34  13.0554304901082 33.9747023809523  12.9415933761948 33.9241071428571  C 12.7012705801553 33.8355654761904  12.5083799149131 33.6869419642858  12.3629213804683 33.4782366071429  C 12.2174628460232 33.26953125  12.1447335788008 33.0386904761904  12.1447335788008 32.7857142857142  L 12.1447335788008 26.1640625  L 28.537277982334 6.07142857142867  L 8.25529885342542 23.6216517857142  L 0.761022187458252 20.5479910714287  C 0.293025163591892 20.3709077380952  0.0400537993398302 20.0230654761905  0.00210809470206641 19.5044642857142  C -0.0231890417230716 18.9985119047619  0.179188049678487 18.6253720238095  0.60923936890697 18.3850446428571  L 32.1800656275636 0.170758928571331  C 32.3697941507527 0.0569196428571104  32.5721712421542 0  32.7871969017685 0  Z " fill-rule="nonzero" fill="#666666" stroke="none" transform="matrix(1 0 0 1 1080 478 )" />
  </g>
</svg>