<?xml version="1.0" encoding="utf-8"?>
<svg version="1.1" xmlns:xlink="http://www.w3.org/1999/xlink" width="34px" height="25px" xmlns="http://www.w3.org/2000/svg">
  <g transform="matrix(1 0 0 1 -740 -731 )">
    <path d="M 32.5124999999999 13.9293323863636  C 33.5041666666666 15.1663115530304  34 16.5838068181818  34 18.1818181818182  C 34 20.0639204545454  33.3359375 21.670809659091  32.0078125 23.0024857954546  C 30.6796875 24.3341619318182  29.0770833333333 25  27.1999999999999 25  L 7.93333333333339 25  C 5.74930555555545 25  3.88107638888891 24.221709280303  2.32864583333333 22.665127840909  C 0.776215277777737 21.1085464015151  0 19.235321969697  0 17.0454545454546  C 0 15.4829545454546  0.419097222222263 14.053622159091  1.25729166666667 12.7574573863636  C 2.09548611111109 11.4612926136364  3.19930555555561 10.4936079545454  4.56875000000002 9.85440340909099  C 4.54513888888891 9.5229640151515  4.53333333333342 9.26846590909099  4.53333333333342 9.09090909090901  C 4.53333333333342 6.58143939393938  5.41874999999993 4.43892045454538  7.18958333333342 2.66335227272725  C 8.96041666666667 0.887784090909122  11.0972222222223 0  13.6 0  C 15.4652777777777 0  17.1564236111111 0.520833333333371  18.6734375 1.5625  C 20.1904513888888 2.60416666666663  21.2972222222222 3.96543560606062  21.99375 5.64630681818176  C 22.8201388888889 4.91240530303037  23.8000000000001 4.54545454545462  24.9333333333334 4.54545454545462  C 26.1847222222223 4.54545454545462  27.2531250000001 4.98934659090901  28.1385416666666 5.87713068181824  C 29.0239583333333 6.76491477272725  29.4666666666667 7.83617424242425  29.4666666666667 9.09090909090901  C 29.4666666666667 9.97869318181824  29.2246527777778 10.7954545454546  28.740625 11.5411931818182  C 30.2635416666667 11.8963068181818  31.5208333333333 12.692353219697  32.5124999999999 13.9293323863636  Z " fill-rule="nonzero" fill="#666666" stroke="none" transform="matrix(1 0 0 1 740 731 )" />
  </g>
</svg>