<?xml version="1.0" encoding="utf-8"?>
<svg version="1.1" xmlns:xlink="http://www.w3.org/1999/xlink" width="34px" height="22px" xmlns="http://www.w3.org/2000/svg">
  <g transform="matrix(1 0 0 1 -1084 -732 )">
    <path d="M 25.2438616071429 17.2352430555555  C 27.7799479166667 15.6883680555555  29.8891369047619 13.6099537037037  31.5714285714287 11  C 29.6488095238095 7.99537037037032  27.2392113095239 5.74826388888891  24.3426339285713 4.25868055555554  C 25.1142113095239 5.58275462962968  25.5 7.0150462962963  25.5 8.55555555555554  C 25.5 10.9108796296297  24.6683407738095 12.9256365740741  23.0050223214287 14.5998263888889  C 21.3417038690477 16.2740162037037  19.3400297619048 17.1111111111111  17 17.1111111111111  C 14.6599702380952 17.1111111111111  12.6582961309523 16.2740162037037  10.9949776785713 14.5998263888889  C 9.33165922619048 12.9256365740741  8.5 10.9108796296297  8.5 8.55555555555554  C 8.5 7.0150462962963  8.88578869047615 5.58275462962968  9.65736607142867 4.25868055555554  C 6.76078869047615 5.74826388888891  4.35119047619048 7.99537037037032  2.42857142857133 11  C 4.11086309523807 13.6099537037037  6.22005208333326 15.6883680555555  8.75613839285711 17.2352430555555  C 11.292224702381 18.7821180555555  14.0401785714287 19.5555555555555  17 19.5555555555555  C 19.9598214285713 19.5555555555555  22.707775297619 18.7821180555555  25.2438616071429 17.2352430555555  Z M 17.6450892857142 4.31597222222229  C 17.8221726190477 4.13773148148152  17.9107142857142 3.9212962962963  17.9107142857142 3.66666666666663  C 17.9107142857142 3.41203703703695  17.8221726190477 3.19560185185185  17.6450892857142 3.01736111111109  C 17.468005952381 2.83912037037032  17.2529761904761 2.75  17 2.75  C 15.4188988095239 2.75  14.0623139880952 3.3197337962963  12.9302455357142 4.45920138888891  C 11.7981770833333 5.59866898148152  11.2321428571429 6.96412037037032  11.2321428571429 8.55555555555554  C 11.2321428571429 8.81018518518522  11.3206845238095 9.02662037037032  11.4977678571429 9.20486111111109  C 11.6748511904761 9.38310185185185  11.889880952381 9.47222222222229  12.1428571428571 9.47222222222229  C 12.3958333333333 9.47222222222229  12.6108630952381 9.38310185185185  12.7879464285713 9.20486111111109  C 12.9650297619048 9.02662037037032  13.0535714285713 8.81018518518522  13.0535714285713 8.55555555555554  C 13.0535714285713 7.46064814814815  13.4393601190477 6.52488425925924  14.2109375 5.74826388888891  C 14.9825148809523 4.97164351851848  15.9122023809523 4.58333333333337  17 4.58333333333337  C 17.2529761904761 4.58333333333337  17.468005952381 4.49421296296305  17.6450892857142 4.31597222222229  Z M 33.6205357142858 9.68229166666663  C 33.8735119047619 10.1278935185185  34 10.5671296296297  34 11  C 34 11.4328703703703  33.8735119047619 11.8721064814815  33.6205357142858 12.3177083333334  C 31.8497023809523 15.2459490740741  29.4685639880952 17.591724537037  26.4771205357142 19.3550347222223  C 23.4856770833333 21.1183449074074  20.3266369047619 22  17 22  C 13.6733630952381 22  10.5143229166667 21.115162037037  7.52287946428578 19.3454861111111  C 4.53143601190482 17.5758101851852  2.15029761904771 15.2332175925926  0.379464285714221 12.3177083333334  C 0.126488095238074 11.8721064814815  0 11.4328703703703  0 11  C 0 10.5671296296297  0.126488095238074 10.1278935185185  0.379464285714221 9.68229166666663  C 2.15029761904771 6.76678240740739  4.53143601190482 4.42418981481478  7.52287946428578 2.65451388888891  C 10.5143229166667 0.884837962963047  13.6733630952381 0  17 0  C 20.3266369047619 0  23.4856770833333 0.884837962963047  26.4771205357142 2.65451388888891  C 29.4685639880952 4.42418981481478  31.8497023809523 6.76678240740739  33.6205357142858 9.68229166666663  Z " fill-rule="nonzero" fill="#666666" stroke="none" transform="matrix(1 0 0 1 1084 732 )" />
  </g>
</svg>