<?xml version="1.0" encoding="utf-8"?>
<svg version="1.1" xmlns:xlink="http://www.w3.org/1999/xlink" width="34px" height="33px" xmlns="http://www.w3.org/2000/svg">
  <g transform="matrix(1 0 0 1 -740 -479 )">
    <path d="M 5.03625 27.1025390625  C 5.3054166666667 26.8375651041666  5.44000000000005 26.51171875  5.44000000000005 26.125  C 5.44000000000005 25.7526041666667  5.3054166666667 25.4303385416667  5.03625 25.158203125  C 4.76708333333329 24.8860677083334  4.44833333333338 24.75  4.07999999999993 24.75  C 3.69749999999999 24.75  3.37520833333338 24.8860677083334  3.11312499999997 25.158203125  C 2.85104166666667 25.4303385416667  2.71999999999991 25.7526041666667  2.71999999999991 26.125  C 2.71999999999991 26.51171875  2.85104166666667 26.8375651041666  3.11312499999997 27.1025390625  C 3.37520833333338 27.3675130208334  3.69749999999999 27.5  4.07999999999993 27.5  C 4.44833333333338 27.5  4.76708333333329 27.3675130208334  5.03625 27.1025390625  Z M 8.43625000000009 14.158203125  C 8.70541666666668 14.4303385416666  8.84000000000003 14.7526041666666  9 15.125  L 9 28.875  C 8.84000000000003 29.2473958333333  8.70541666666668 29.5696614583333  8.43625000000009 29.841796875  C 8.16708333333338 30.1139322916667  7.84833333333336 30.25  7.48000000000002 30.25  L 1.36000000000001 30.25  C 0.991666666666674 30.25  0.672916666666652 30.1139322916667  0.403749999999945 29.841796875  C 0.134583333333239 29.5696614583333  0 29.2473958333333  0 28.875  L 0 15.125  C 0 14.7526041666666  0.134583333333239 14.4303385416666  0.403749999999945 14.158203125  C 0.672916666666652 13.8860677083333  0.991666666666674 13.75  1.36000000000001 13.75  L 7.48000000000002 13.75  C 7.84833333333336 13.75  8.16708333333338 13.8860677083333  8.43625000000009 14.158203125  Z M 32.7887500000001 12.224609375  C 33.5962500000001 13.041015625  34 14.0078125  34 15.125  C 34 16.3567708333333  33.6104166666667 17.423828125  32.8312500000001 18.326171875  C 33.0437499999999 18.9563802083334  33.15 19.5006510416667  33.15 19.958984375  C 33.1925 21.0475260416667  32.8879166666667 22.0286458333333  32.2362499999999 22.90234375  C 32.4770833333333 23.7044270833333  32.4770833333333 24.5423177083333  32.2362499999999 25.416015625  C 32.02375 26.232421875  31.64125 26.9055989583333  31.08875 27.435546875  C 31.2162499999999 29.0397135416667  30.8691666666666 30.3359375  30.0475 31.32421875  C 29.1408333333334 32.4127604166666  27.7454166666666 32.9713541666667  25.8612499999999 33  L 25.0962500000001 33  L 23.4812499999999 33  L 23.12 33  C 22.1849999999999 33  21.165 32.8889973958334  20.0599999999999 32.6669921875  C 18.9549999999999 32.4449869791666  18.094375 32.2373046875  17.478125 32.0439453125  C 16.8618750000001 31.8505859375  16.0083333333333 31.5677083333333  14.9175 31.1953125  C 13.1750000000001 30.5794270833333  12.0558333333333 30.2643229166667  11.5599999999999 30.25  C 11.1916666666666 30.2356770833334  10.8729166666666 30.0960286458333  10.60375 29.8310546875  C 10.3345833333334 29.5660807291667  10.1999999999999 29.2473958333333  10.1999999999999 28.875  L 10.1999999999999 15.103515625  C 10.1999999999999 14.7454427083333  10.3275 14.4339192708333  10.5825 14.1689453125  C 10.8375 13.9039713541667  11.1420833333333 13.7571614583333  11.49625 13.728515625  C 11.83625 13.6998697916667  12.3745833333334 13.27734375  13.1112499999999 12.4609375  C 13.8479166666666 11.64453125  14.5633333333333 10.7779947916667  15.2575000000001 9.861328125  C 16.2208333333334 8.615234375  16.9362500000001 7.755859375  17.4037499999999 7.283203125  C 17.6587500000001 7.025390625  17.8783333333333 6.681640625  18.0625 6.251953125  C 18.2466666666667 5.822265625  18.370625 5.47493489583331  18.4343749999999 5.2099609375  C 18.4981250000001 4.94498697916669  18.59375 4.51171875  18.7212500000001 3.91015625  C 18.8204166666667 3.3515625  18.9089583333333 2.91471354166669  18.9868750000001 2.599609375  C 19.0647916666667 2.28450520833331  19.2029166666666 1.912109375  19.40125 1.482421875  C 19.5995833333334 1.052734375  19.8404166666667 0.694661458333314  20.1237500000001 0.408203125  C 20.3929166666667 0.136067708333371  20.7116666666667 0  21.0799999999999 0  C 21.7316666666667 0  22.3160416666667 0.0751953125  22.833125 0.2255859375  C 23.3502083333334 0.3759765625  23.7752083333332 0.562174479166686  24.1081250000001 0.7841796875  C 24.4410416666667 1.00618489583337  24.724375 1.29622395833337  24.958125 1.654296875  C 25.191875 2.01236979166669  25.3618750000001 2.33463541666669  25.468125 2.62109375  C 25.574375 2.90755208333337  25.6593750000001 3.265625  25.723125 3.6953125  C 25.786875 4.125  25.8222916666667 4.447265625  25.8293749999999 4.662109375  C 25.8364583333333 4.876953125  25.84 5.15625  25.84 5.5  C 25.84 6.04427083333331  25.7727083333333 6.58854166666669  25.6381249999999 7.1328125  C 25.5035416666667 7.67708333333337  25.3689583333332 8.10677083333331  25.234375 8.421875  C 25.0997916666668 8.73697916666669  24.9050000000001 9.13802083333331  24.65 9.625  C 24.6075000000001 9.7109375  24.5366666666666 9.83984375  24.4375 10.01171875  C 24.3383333333334 10.18359375  24.2604166666667 10.3411458333333  24.20375 10.484375  C 24.1470833333334 10.6276041666666  24.0904166666667 10.7994791666667  24.0337500000001 11  L 29.9200000000001 11  C 31.025 11  31.9812499999999 11.408203125  32.7887500000001 12.224609375  Z " fill-rule="nonzero" fill="#666666" stroke="none" transform="matrix(1 0 0 1 740 479 )" />
  </g>
</svg>