<?xml version="1.0" encoding="utf-8"?>
<svg version="1.1" xmlns:xlink="http://www.w3.org/1999/xlink" width="34px" height="27px" xmlns="http://www.w3.org/2000/svg">
  <g transform="matrix(1 0 0 1 -361 -730 )">
    <path d="M 7.10546875 19.8185369318182  C 7.22563244047615 19.9399857954545  7.28571428571433 20.0838068181818  7.28571428571433 20.25  L 7.28571428571433 21.4772727272727  C 7.28571428571433 21.643465909091  7.22563244047615 21.7872869318182  7.10546875 21.9087357954545  C 6.98530505952385 22.030184659091  6.84300595238096 22.090909090909  6.67857142857144 22.090909090909  L 5.46428571428567 22.090909090909  C 5.29985119047615 22.090909090909  5.15755208333337 22.030184659091  5.03738839285711 21.9087357954545  C 4.91722470238096 21.7872869318182  4.85714285714289 21.643465909091  4.85714285714289 21.4772727272727  L 4.85714285714289 20.25  C 4.85714285714289 20.0838068181818  4.91722470238096 19.9399857954545  5.03738839285711 19.8185369318182  C 5.15755208333337 19.6970880681818  5.29985119047615 19.6363636363637  5.46428571428567 19.6363636363637  L 6.67857142857144 19.6363636363637  C 6.84300595238096 19.6363636363637  6.98530505952385 19.6970880681818  7.10546875 19.8185369318182  Z M 7.10546875 14.9094460227273  C 7.22563244047615 15.0308948863637  7.28571428571433 15.174715909091  7.28571428571433 15.340909090909  L 7.28571428571433 16.5681818181818  C 7.28571428571433 16.734375  7.22563244047615 16.8781960227273  7.10546875 16.9996448863637  C 6.98530505952385 17.12109375  6.84300595238096 17.1818181818182  6.67857142857144 17.1818181818182  L 5.46428571428567 17.1818181818182  C 5.29985119047615 17.1818181818182  5.15755208333337 17.12109375  5.03738839285711 16.9996448863637  C 4.91722470238096 16.8781960227273  4.85714285714289 16.734375  4.85714285714289 16.5681818181818  L 4.85714285714289 15.340909090909  C 4.85714285714289 15.174715909091  4.91722470238096 15.0308948863637  5.03738839285711 14.9094460227273  C 5.15755208333337 14.787997159091  5.29985119047615 14.7272727272727  5.46428571428567 14.7272727272727  L 6.67857142857144 14.7272727272727  C 6.84300595238096 14.7272727272727  6.98530505952385 14.787997159091  7.10546875 14.9094460227273  Z M 7.10546875 10.0003551136363  C 7.22563244047615 10.1218039772727  7.28571428571433 10.265625  7.28571428571433 10.4318181818182  L 7.28571428571433 11.659090909091  C 7.28571428571433 11.825284090909  7.22563244047615 11.9691051136363  7.10546875 12.0905539772727  C 6.98530505952385 12.212002840909  6.84300595238096 12.2727272727273  6.67857142857144 12.2727272727273  L 5.46428571428567 12.2727272727273  C 5.29985119047615 12.2727272727273  5.15755208333337 12.212002840909  5.03738839285711 12.0905539772727  C 4.91722470238096 11.9691051136363  4.85714285714289 11.825284090909  4.85714285714289 11.659090909091  L 4.85714285714289 10.4318181818182  C 4.85714285714289 10.265625  4.91722470238096 10.1218039772727  5.03738839285711 10.0003551136363  C 5.15755208333337 9.87890625  5.29985119047615 9.81818181818176  5.46428571428567 9.81818181818176  L 6.67857142857144 9.81818181818176  C 6.84300595238096 9.81818181818176  6.98530505952385 9.87890625  7.10546875 10.0003551136363  Z M 28.9626116071429 19.8185369318182  C 29.082775297619 19.9399857954545  29.1428571428571 20.0838068181818  29.1428571428571 20.25  L 29.1428571428571 21.4772727272727  C 29.1428571428571 21.643465909091  29.082775297619 21.7872869318182  28.9626116071429 21.9087357954545  C 28.8424479166666 22.030184659091  28.7001488095239 22.090909090909  28.5357142857143 22  L 10.3214285714286 22  C 10.156994047619 22.090909090909  10.0146949404761 22.030184659091  9.89453125 21.9087357954545  C 9.77436755952385 21.7872869318182  9.71428571428567 21.643465909091  9.71428571428567 21.4772727272727  L 9.71428571428567 20.25  C 9.71428571428567 20.0838068181818  9.77436755952385 19.9399857954545  9.89453125 19.8185369318182  C 10.0146949404761 19.6970880681818  10.156994047619 19.6363636363637  10.3214285714286 19.6363636363637  L 28.5357142857143 19.6363636363637  C 28.7001488095239 19.6363636363637  28.8424479166666 19.6970880681818  28.9626116071429 19.8185369318182  Z M 28.9626116071429 14.9094460227273  C 29.082775297619 15.0308948863637  29.1428571428571 15.174715909091  29.1428571428571 15.340909090909  L 29.1428571428571 16.5681818181818  C 29.1428571428571 16.734375  29.082775297619 16.8781960227273  28.9626116071429 16.9996448863637  C 28.8424479166666 17.12109375  28.7001488095239 17.1818181818182  28.5357142857143 17  L 10.3214285714286 17  C 10.156994047619 17.1818181818182  10.0146949404761 17.12109375  9.89453125 16.9996448863637  C 9.77436755952385 16.8781960227273  9.71428571428567 16.734375  9.71428571428567 16.5681818181818  L 9.71428571428567 15.340909090909  C 9.71428571428567 15.174715909091  9.77436755952385 15.0308948863637  9.89453125 14.9094460227273  C 10.0146949404761 14.787997159091  10.156994047619 14.7272727272727  10.3214285714286 14.7272727272727  L 28.5357142857143 14.7272727272727  C 28.7001488095239 14.7272727272727  28.8424479166666 14.787997159091  28.9626116071429 14.9094460227273  Z M 28.9626116071429 10.0003551136363  C 29.082775297619 10.1218039772727  29.1428571428571 10.265625  29.1428571428571 10.4318181818182  L 29.1428571428571 11.659090909091  C 29.1428571428571 11.825284090909  29.082775297619 11.9691051136363  28.9626116071429 12.0905539772727  C 28.8424479166666 12.212002840909  28.7001488095239 12.2727272727273  28.5357142857143 12.2727272727273  L 10.3214285714286 12.2727272727273  C 10.156994047619 12.2727272727273  10.0146949404761 12.212002840909  9.89453125 12.0905539772727  C 9.77436755952385 11.9691051136363  9.71428571428567 11.825284090909  9.71428571428567 11.659090909091  L 9.71428571428567 10.4318181818182  C 9.71428571428567 10.265625  9.77436755952385 10.1218039772727  9.89453125 10.0003551136363  C 10.0146949404761 9.87890625  10.156994047619 9.81818181818176  10.3214285714286 10  L 28.5357142857143 10  C 28.7001488095239 9.81818181818176  28.8424479166666 9.87890625  28.9626116071429 10.0003551136363  Z M 31.3911830357143 24.36328125  C 31.5113467261905 24.2418323863637  31.5714285714286 24.0980113636363  31 23.9318181818182  L 31 7.97727272727275  C 31.5714285714286 7.8110795454545  31.5113467261905 7.66725852272725  31.3911830357143 7.54580965909099  C 31.2710193452381 7.42436079545451  31.1287202380952 7.36363636363626  30.9642857142857 7.36363636363626  L 3.03571428571433 7.36363636363626  C 2.87127976190476 7.36363636363626  2.72898065476193 7.42436079545451  2.60881696428567 7.54580965909099  C 2.48865327380952 7.66725852272725  2.42857142857144 7.8110795454545  3 7.97727272727275  L 3 23.9318181818182  C 2.42857142857144 24.0980113636363  2.48865327380952 24.2418323863637  2.60881696428567 24.36328125  C 2.72898065476193 24.4847301136363  2.87127976190476 24.5454545454545  3.03571428571433 24.5454545454545  L 30.9642857142857 24.5454545454545  C 31.1287202380952 24.5454545454545  31.2710193452381 24.4847301136363  31.3911830357143 24.36328125  Z M 33.1082589285714 0.901278409090992  C 33.7027529761905 1.50213068181824  34 2.22443181818176  34 3.06818181818176  L 34 23.9318181818182  C 34 24.7755681818182  33.7027529761905 25.4978693181818  33.1082589285714 26.098721590909  C 32.5137648809524 26.6995738636363  31.7991071428571 27  30.9642857142857 27  L 3.03571428571433 27  C 2.20089285714289 27  1.48623511904759 26.6995738636363  0.891741071428555 26.098721590909  C 0.297247023809518 25.4978693181818  0 24.7755681818182  0 23.9318181818182  L 0 3.06818181818176  C 0 2.22443181818176  0.297247023809518 1.50213068181824  0.891741071428555 0.901278409090992  C 1.48623511904759 0.30042613636374  2.20089285714289 0  3.03571428571433 0  L 30.9642857142857 0  C 31.7991071428571 0  32.5137648809524 0.30042613636374  33.1082589285714 0.901278409090992  Z " fill-rule="nonzero" fill="#666666" stroke="none" transform="matrix(1 0 0 1 361 730 )" />
  </g>
</svg>