<?xml version="1.0" encoding="utf-8"?>
<svg version="1.1" xmlns:xlink="http://www.w3.org/1999/xlink" width="79px" height="24px" xmlns="http://www.w3.org/2000/svg">
  <defs>
    <mask fill="white" id="clip40">
      <path d="M 0 21  L 0 3  C 0 1.32  1.2414285714286 0  2.82142857142857 0  L 45.5942857142853 0  L 76.1785714285714 0  C 77.7585714285714 0  79 1.32  79 3  L 79 21  C 79 22.68  77.7585714285714 24  76.1785714285714 24  L 2.82142857142857 24  C 1.2414285714286 24  0 22.68  0 21  Z " fill-rule="evenodd" />
    </mask>
  </defs>
  <g transform="matrix(1 0 0 1 -626 -166 )">
    <path d="M 0 21  L 0 3  C 0 1.32  1.2414285714286 0  2.82142857142857 0  L 45.5942857142853 0  L 76.1785714285714 0  C 77.7585714285714 0  79 1.32  79 3  L 79 21  C 79 22.68  77.7585714285714 24  76.1785714285714 24  L 2.82142857142857 24  C 1.2414285714286 24  0 22.68  0 21  Z " fill-rule="nonzero" fill="#ffffff" stroke="none" transform="matrix(1 0 0 1 626 166 )" />
    <path d="M 0 21  L 0 3  C 0 1.32  1.2414285714286 0  2.82142857142857 0  L 45.5942857142853 0  L 76.1785714285714 0  C 77.7585714285714 0  79 1.32  79 3  L 79 21  C 79 22.68  77.7585714285714 24  76.1785714285714 24  L 2.82142857142857 24  C 1.2414285714286 24  0 22.68  0 21  Z " stroke-width="2" stroke="#797979" fill="none" transform="matrix(1 0 0 1 626 166 )" mask="url(#clip40)" />
  </g>
</svg>